<svg width="28.000000" height="28.000000" viewBox="0 0 28 28" fill="none" xmlns="http://www.w3.org/2000/svg" xmlns:xlink="http://www.w3.org/1999/xlink">
	<defs/>
	<path id="Vector" d="M23.28 10.45C22.5 9.58 21.32 9.08 19.69 8.91L19.69 8.02C19.69 6.42 19.01 4.88 17.82 3.81C16.62 2.71 15.06 2.2 13.43 2.35C10.65 2.62 8.3 5.31 8.3 8.23L8.3 8.91C6.67 9.08 5.49 9.58 4.71 10.45C3.58 11.71 3.61 13.39 3.74 14.55L4.56 21.05C4.8 23.33 5.72 25.66 10.74 25.66L17.25 25.66C22.27 25.66 23.19 23.33 23.43 21.06L24.25 14.54C24.38 13.39 24.4 11.71 23.28 10.45ZM13.6 3.97C14.77 3.87 15.87 4.23 16.74 5.01C17.59 5.78 18.07 6.88 18.07 8.02L18.07 8.84L9.92 8.84L9.92 8.23C9.92 6.15 11.64 4.16 13.6 3.97ZM9.82 15.34L9.81 15.34C9.16 15.34 8.64 14.81 8.64 14.17C8.64 13.53 9.16 13 9.81 13C10.46 13 10.99 13.53 10.99 14.17C10.99 14.81 10.46 15.34 9.82 15.34ZM17.99 15.34L17.97 15.34C17.33 15.34 16.81 14.81 16.81 14.17C16.81 13.53 17.33 13 17.97 13C18.63 13 19.15 13.53 19.15 14.17C19.15 14.81 18.63 15.34 17.99 15.34Z" fill="#FFFFFF" fill-opacity="1.000000" fill-rule="nonzero"/>
	<g opacity="0.000000"/>
	<circle id="Ellipse 11" cx="18.000000" cy="14.000000" r="2.000000" fill="#FFFFFF" fill-opacity="1.000000"/>
	<circle id="Ellipse 12" cx="10.000000" cy="14.000000" r="2.000000" fill="#FFFFFF" fill-opacity="1.000000"/>
</svg>
