<svg width="89.655640" height="54.400635" viewBox="0 0 89.6556 54.4006" fill="none" xmlns="http://www.w3.org/2000/svg" xmlns:xlink="http://www.w3.org/1999/xlink">
	<defs/>
	<path id="Vector" d="M70.5 54.4L70.5 27.53L89.65 27.53L89.65 33.41L77.71 33.41L77.71 38.02L88.66 38.02L88.66 43.9L77.71 43.9L77.71 48.52L89.6 48.52L89.6 54.4L70.5 54.4Z" fill="#FFFFFF" fill-opacity="1.000000" fill-rule="nonzero"/>
	<path id="Vector" d="M36.45 27.53L45.43 27.53L51.61 42.75L51.92 42.75L58.09 27.53L67.08 27.53L67.08 54.4L60.02 54.4L60.02 38.86L59.81 38.86L53.89 54.19L49.63 54.19L43.71 38.76L43.51 38.76L43.51 54.4L36.45 54.4L36.45 27.53Z" fill="#FFFFFF" fill-opacity="1.000000" fill-rule="nonzero"/>
	<path id="Vector" d="M33.03 27.53L33.03 54.4L25.81 54.4L25.81 27.53L33.03 27.53Z" fill="#FFFFFF" fill-opacity="1.000000" fill-rule="nonzero"/>
	<path id="Vector" d="M0 33.41L0 27.53L23.1 27.53L23.1 33.41L15.1 33.41L15.1 54.4L7.99 54.4L7.99 33.41L0 33.41Z" fill="#FFFFFF" fill-opacity="1.000000" fill-rule="nonzero"/>
	<path id="Vector" d="M46.28 22.41L46.28 0.3L55.72 0.3C57.35 0.3 58.77 0.62 59.99 1.27C61.2 1.92 62.15 2.83 62.83 4C63.5 5.17 63.84 6.55 63.84 8.12C63.84 9.7 63.49 11.07 62.79 12.23C62.1 13.39 61.13 14.28 59.88 14.91C58.63 15.53 57.18 15.85 55.51 15.85L49.87 15.85L49.87 11.18L54.31 11.18C55.01 11.18 55.61 11.06 56.1 10.82C56.59 10.56 56.98 10.21 57.24 9.75C57.51 9.29 57.65 8.74 57.65 8.12C57.65 7.48 57.51 6.94 57.24 6.5C56.98 6.04 56.59 5.7 56.1 5.46C55.61 5.21 55.01 5.09 54.31 5.09L52.22 5.09L52.22 22.41L46.28 22.41Z" fill="#64099B" fill-opacity="1.000000" fill-rule="nonzero"/>
	<path id="Vector" d="M36.79 0.3L42.73 0.3L42.73 14.47C42.73 16.15 42.33 17.61 41.53 18.84C40.74 20.06 39.64 21.01 38.22 21.68C36.8 22.34 35.16 22.67 33.28 22.67C31.4 22.67 29.74 22.34 28.33 21.68C26.91 21.01 25.81 20.06 25.02 18.84C24.23 17.61 23.84 16.15 23.84 14.47L23.84 0.3L29.78 0.3L29.78 13.95C29.78 14.63 29.93 15.24 30.23 15.78C30.53 16.32 30.94 16.73 31.47 17.04C32 17.34 32.61 17.49 33.28 17.49C33.97 17.49 34.57 17.34 35.1 17.04C35.63 16.73 36.04 16.32 36.34 15.78C36.64 15.24 36.79 14.63 36.79 13.95L36.79 0.3Z" fill="#64099B" fill-opacity="1.000000" fill-rule="nonzero"/>
	<path id="Vector" d="M21.15 8.59L15.12 8.59C15.08 8.09 14.96 7.63 14.78 7.22C14.6 6.81 14.35 6.46 14.03 6.16C13.72 5.86 13.34 5.63 12.89 5.47C12.44 5.3 11.93 5.22 11.36 5.22C10.36 5.22 9.52 5.47 8.83 5.96C8.14 6.45 7.62 7.15 7.27 8.06C6.92 8.98 6.74 10.07 6.74 11.36C6.74 12.71 6.92 13.84 7.28 14.76C7.64 15.66 8.17 16.35 8.85 16.81C9.53 17.26 10.36 17.49 11.32 17.49C11.87 17.49 12.36 17.42 12.79 17.28C13.23 17.14 13.6 16.93 13.92 16.67C14.24 16.4 14.5 16.08 14.7 15.71C14.91 15.33 15.05 14.9 15.12 14.42L21.15 14.47C21.07 15.4 20.81 16.35 20.37 17.33C19.92 18.29 19.28 19.18 18.45 20C17.63 20.82 16.62 21.47 15.41 21.97C14.2 22.47 12.79 22.72 11.19 22.72C9.18 22.72 7.38 22.28 5.78 21.41C4.2 20.54 2.94 19.26 2.01 17.56C1.09 15.87 0.63 13.8 0.63 11.36C0.63 8.89 1.1 6.82 2.04 5.14C2.98 3.44 4.25 2.17 5.85 1.3C7.44 0.43 9.22 0 11.19 0C12.57 0 13.84 0.19 15 0.57C16.16 0.95 17.18 1.51 18.06 2.24C18.93 2.97 19.64 3.86 20.17 4.93C20.71 6 21.03 7.22 21.15 8.59Z" fill="#64099B" fill-opacity="1.000000" fill-rule="nonzero"/>
</svg>
